<svg version="1.1" id="Layer_1" xmlns="http://www.w3.org/2000/svg" x="0" y="0" viewBox="0 0 68 68.1" style="enable-background:new 0 0 68 68.1" xml:space="preserve"><style>.st1{fill:#fff}</style><path d="M34 .5C15.5.5.5 15.5.5 34s15 33.5 33.5 33.5 33.5-15 33.5-33.5S52.5.5 34 .5zm0 16.9c7.2 0 13 5.8 13 13s-5.8 13-13 13-13-5.8-13-13 5.8-13 13-13zm-1.3 48.5c-11.6-.4-19-7.3-20.7-9 .6-1.4 1.6-3.4 3.4-5.3C19.6 47.4 25 47 26.5 47h14.9c1.6.1 6.9.5 11.1 4.6 1.8 1.8 2.8 3.6 3.4 5-1.3 1.5-9.9 9.8-23.2 9.3z" style="fill:#efefef"/><path class="st1" d="M41.5 47h-15c-1.5 0-6.9.4-11.1 4.6-1.9 1.9-2.9 3.9-3.4 5.3 1.7 1.7 9.1 8.6 20.7 9 13.3.5 21.9-7.8 23.3-9.3-.6-1.4-1.6-3.3-3.4-5-4.2-4.1-9.5-4.5-11.1-4.6z"/><circle class="st1" cx="34" cy="30.4" r="13"/></svg>