<?xml version="1.0" encoding="utf-8"?>
<!-- Generator: Adobe Illustrator 23.0.5, SVG Export Plug-In . SVG Version: 6.00 Build 0)  -->
<svg version="1.1" id="Layer_1" xmlns="http://www.w3.org/2000/svg" xmlns:xlink="http://www.w3.org/1999/xlink" x="0px" y="0px"
	 viewBox="0 0 55 55" style="enable-background:new 0 0 55 55;" xml:space="preserve">
<style type="text/css">
	.st0{fill:none;stroke:#000000;stroke-width:3;stroke-miterlimit:10;}
</style>
<path class="st0" d="M49.15,39.57c2.04-3.67,3.13-7.87,3.13-12.11c0-6.67-2.59-12.93-7.28-17.65S34.04,2.5,27.39,2.5
	S14.5,5.09,9.78,9.8S2.5,20.78,2.5,27.46s2.59,12.93,7.28,17.65s10.96,7.3,17.59,7.3c4.28,0,8.52-1.11,12.24-3.22l0.07-0.04
	L52.5,52.5L49.15,39.57z M27.35,16.2c6.2,0,11.22,5.04,11.22,11.26c0,6.2-5.04,11.26-11.22,11.26c-6.2,0-11.22-5.04-11.22-11.26
	C16.11,21.24,21.15,16.2,27.35,16.2z"/>
</svg>
