<svg xmlns="http://www.w3.org/2000/svg" viewBox="0 0 30 30" style="enable-background:new 0 0 30 30" xml:space="preserve"><path d="M15 18.1c3.1 0 5.7-2.6 5.7-5.7V6.5c0-3.1-2.6-5.7-5.7-5.7S9.3 3.4 9.3 6.5v5.9c0 3.2 2.5 5.7 5.7 5.7zm2.1-10.2c0-.5.4-.9.9-.9s.9.4.9.9v3.3c0 .5-.4.9-.9.9s-.9-.4-.9-.9V7.9zm-3-1.6c0-.5.4-.9.9-.9s.9.4.9.9v6.4c0 .5-.4.9-.9.9s-.9-.4-.9-.9V6.3zm-3 1.6c0-.5.4-.9.9-.9s.9.4.9.9v3.3c0 .5-.4.9-.9.9s-.9-.4-.9-.9V7.9z"/><path d="M24.4 12.6v-.7h-1.8v.7c0 4.2-3.4 7.6-7.6 7.6-4.2 0-7.6-3.4-7.6-7.6v-.7H5.6v.7c0 4.9 3.8 9 8.6 9.4v5h-6v1.8H22V27h-6v-5c4.7-.4 8.4-4.5 8.4-9.4z"/></svg>