<?xml version="1.0" encoding="utf-8"?>
<!-- Generator: Adobe Illustrator 23.0.5, SVG Export Plug-In . SVG Version: 6.00 Build 0)  -->
<svg version="1.1" id="Layer_1" xmlns="http://www.w3.org/2000/svg" xmlns:xlink="http://www.w3.org/1999/xlink" x="0px" y="0px"
	 viewBox="0 0 40.5 37" style="enable-background:new 0 0 40.5 37;" xml:space="preserve">
<style type="text/css">
	.st0{fill:#D80013;}
</style>
<g>
	<polygon class="st0" points="14.3,18.8 14.4,18.8 14.4,17.1 8.7,17.2 8.7,11.5 7,11.5 7,17.2 1.3,17.2 1.3,18.9 7,18.9 7,24.6 
		8.7,24.5 8.7,18.9 	"/>
	<path class="st0" d="M26.1,19.2c3.4,0,6.2-2.8,6.2-6.2c0-3.4-2.8-6.2-6.2-6.2s-6.2,2.8-6.2,6.2C19.9,16.4,22.7,19.2,26.1,19.2z
		 M21.7,13c0-2.5,2-4.4,4.4-4.4s4.4,2,4.4,4.4c0,2.5-2,4.4-4.4,4.4S21.7,15.5,21.7,13z"/>
	<path class="st0" d="M39.8,33.3c-0.2-1.2-0.4-2.5-0.7-3.7c-0.8-3.1-1.1-4.6-2.4-6c-1.8-2-4.5-2.5-6.4-2.5h-7.7
		c-1.9,0-4.6,0.5-6.4,2.5c-1.2,1.4-1.6,2.9-2.4,6c-0.3,1.2-0.5,2.5-0.7,3.7l0,0.1l1.7,0.2l0-0.1c0.2-1.2,0.4-2.4,0.7-3.6
		c0.7-2.8,1-4.2,2-5.3c1.4-1.6,3.6-1.9,5.1-2h7.6c1.6,0,3.8,0.4,5.2,2c0.9,1,1.3,2.4,2,5.3c0.3,1.2,0.5,2.4,0.7,3.6l0,0.1l1.7-0.2
		L39.8,33.3z"/>
</g>
</svg>
