<?xml version="1.0" encoding="utf-8"?>
<!-- Generator: Adobe Illustrator 23.0.5, SVG Export Plug-In . SVG Version: 6.00 Build 0)  -->
<svg version="1.1" id="Layer_1" xmlns="http://www.w3.org/2000/svg" xmlns:xlink="http://www.w3.org/1999/xlink" x="0px" y="0px"
	 viewBox="0 0 27 27" style="enable-background:new 0 0 27 27;" xml:space="preserve">
<style type="text/css">
	.st0{fill:#D80013;}
</style>
<g>
	<path class="st0" d="M13.2,12.4c3.3,0,6.1-2.7,6.1-6.1c0-3.3-2.7-6.1-6.1-6.1C9.9,0.2,7.1,3,7.1,6.3C7.1,9.7,9.9,12.4,13.2,12.4z
		 M13.2,1.7c2.5,0,4.6,2.1,4.6,4.6c0,2.5-2.1,4.6-4.6,4.6c-2.5,0-4.6-2.1-4.6-4.6C8.6,3.8,10.7,1.7,13.2,1.7z"/>
	<path class="st0" d="M26,22.8c-0.8-3.1-1.1-4.6-2.3-6c-1.8-2-4.4-2.5-6.4-2.5H9.7c-1.9,0-4.6,0.5-6.3,2.5c-1.2,1.3-1.6,2.9-2.3,6
		c-0.3,1.2-0.5,2.5-0.7,3.7l1.5,0.2c0.2-1.2,0.4-2.4,0.7-3.6c0.7-2.8,1.1-4.2,2-5.3c1.4-1.6,3.6-2,5.2-2h7.6c1.6,0,3.8,0.4,5.3,2
		c1,1.1,1.3,2.5,2,5.3c0.3,1.2,0.5,2.4,0.7,3.6l1.5-0.2C26.6,25.3,26.3,24.1,26,22.8z"/>
</g>
</svg>
