<svg xmlns="http://www.w3.org/2000/svg" viewBox="0 0 30 27" style="enable-background:new 0 0 30 27" xml:space="preserve"><path d="M21.7 10.3v5.5c2.5 1.5 5.1 2.9 7.6 4.4V6.1c-2.5 1.4-5.1 2.8-7.6 4.2zm6.1 7.3-2.4-1.4-2.2-1.3v-3.8l2.2-1.2 2.4-1.3v9zM4.3 5.8H17l1.5-1.5H2.8V20l1.5-1.5zM19 20.5H6.2L4.7 22h15.8V6.2L19 7.7z"/><path d="M11.6 16.1c1.7 0 3-1.3 3-3 0-.3-.1-.6-.2-.9L10.6 16c.4 0 .7.1 1 .1zM8.6 13.1c0 .3.1.6.1.9l3.7-3.7c-.3-.1-.6-.1-.9-.1-1.6-.1-2.9 1.2-2.9 2.9zM-.022 23.603 22.322 1.26l1.061 1.06L1.039 24.665z"/></svg>