<svg xmlns="http://www.w3.org/2000/svg" viewBox="0 0 30 30" style="enable-background:new 0 0 30 30" xml:space="preserve"><path d="M2.54 22.385 25.964 5.12l1.068 1.45L3.607 23.833zM16.1 18.2c3.1 0 5.7-2.5 5.7-5.7V11l-8.6 6.4c.8.4 1.8.8 2.9.8zM15.2 12.4V6.5c0-.5.4-.9.9-.9s.9.4.9.9v4.6l1.2-.9V8c0-.5.4-.9.9-.9s.9.4.9.9v.8l1.8-1.3v-.8C21.7 3.5 19.1 1 16 1c-3.1 0-5.7 2.5-5.7 5.7v5.9c0 1 .3 2 .7 2.7l4.2-2.9zM12.3 8c0-.5.4-.9.9-.9s.8.4.8.9v3.2c0 .5-.4.9-.9.9s-.9-.4-.9-.9V8zM9.5 16.7c-.7-1.1-1-2.3-1-3.7v-.7H6.7v.7c0 1.8.5 3.4 1.4 4.9l1.4-1.2z"/><path d="M23.6 12.8c0 4.1-3.4 7.5-7.5 7.5-1.8 0-3.4-.6-4.7-1.7l-1.5 1.2c1.5 1.3 3.3 2.2 5.3 2.3v5h-6V29h13.7v-1.8h-6v-5c4.8-.5 8.5-4.5 8.5-9.3v-.7h-1.9c.1.1.1.6.1.6z"/></svg>