<?xml version="1.0" encoding="utf-8"?>
<!-- Generator: Adobe Illustrator 23.0.5, SVG Export Plug-In . SVG Version: 6.00 Build 0)  -->
<svg version="1.1" id="Layer_1" xmlns="http://www.w3.org/2000/svg" xmlns:xlink="http://www.w3.org/1999/xlink" x="0px" y="0px"
	 viewBox="0 0 41 41" style="enable-background:new 0 0 41 41;" xml:space="preserve">
<g>
	<path d="M28.6,14.6l-5-12.7l-0.2-0.4l-3.9,12.9L8,19.7l11.6,4.1L24.1,36l4.8-12.3l11.7-5L28.6,14.6z M27.6,22.5l-3.5,9l-3.2-8.9
		l-8.6-3l8.6-4.1l2.8-9.2l3.7,9.4l0.1,0.1l8.7,3l-8.4,3.6L27.6,22.5z"/>
	<path d="M8.6,12l4.6-1.9L8.5,8.4l-2-5.2L4.9,8.3l-4.4,2.1L5,12l1.7,4.8L8.6,12z M7.4,9.5l1.8,0.6l-1.7,0.7l-0.7,1.8l-0.6-1.8
		l-1.8-0.6l1.8-0.9l0.5-1.7L7.4,9.5z"/>
	<path d="M12.7,26.6l-1.6,5.1l-4.4,2.1l4.5,1.6l1.7,4.8l1.9-4.8l4.6-1.9l-4.7-1.6L12.7,26.6z M13,36.1l-0.6-1.8l-1.8-0.6l1.8-0.9
		l0.5-1.7l0.7,1.9l1.8,0.6l-1.7,0.7L13,36.1z"/>
</g>
</svg>
