<?xml version="1.0" encoding="utf-8"?>
<!-- Generator: Adobe Illustrator 23.0.5, SVG Export Plug-In . SVG Version: 6.00 Build 0)  -->
<svg version="1.1" id="Layer_1" xmlns="http://www.w3.org/2000/svg" xmlns:xlink="http://www.w3.org/1999/xlink" x="0px" y="0px"
	 viewBox="0 0 28 28" style="enable-background:new 0 0 28 28;" xml:space="preserve">
<style type="text/css">
	.st0{fill:#0F1419;}
</style>
<g>
	<path class="st0" d="M24.78,2.29c-0.63-0.72-1.49-1.15-2.44-1.21L15.5,0.66l-0.08,0c-0.5-0.16-1.05-0.19-1.57-0.12L4.48,1.95
		C3.53,2.09,2.69,2.6,2.11,3.39C1.54,4.17,1.3,5.13,1.44,6.1l2.65,18.27c0.26,1.78,1.79,3.13,3.56,3.13c0.18,0,0.35-0.01,0.53-0.04
		l9.38-1.41c0.25-0.04,0.5-0.1,0.74-0.19l2.57,0.16c0.95,0.06,1.86-0.26,2.57-0.91c0.71-0.64,1.13-1.52,1.18-2.47L25.66,4.9
		C25.72,3.94,25.41,3.02,24.78,2.29z M21.07,24.43c-0.04,0-0.08,0-0.12,0l-0.88-0.06c0.45-0.73,0.64-1.62,0.51-2.48L17.94,3.63
		c-0.06-0.44-0.21-0.86-0.42-1.25l4.73,0.29c0.53,0.03,1.01,0.27,1.36,0.67c0.35,0.4,0.52,0.92,0.49,1.46l-1.06,17.74
		C22.97,23.6,22.11,24.43,21.07,24.43z M16.63,13.29L16.63,13.29c-0.57,0.48-0.83,0.99-1.2,1.71c-0.27,0.54-0.4,0.89-0.53,1.22
		c-0.09,0.24-0.18,0.49-0.32,0.81c-0.25,0.57-0.54,1.13-0.86,1.67c-0.22,0.35-0.49,0.66-0.79,0.92c-0.8,0.68-1.82,1.04-3.03,1.05
		c-0.84,0.01-1.68-0.02-2.49-0.09c-0.78-0.07-1.56-0.17-2.33-0.31L3.01,5.87C2.93,5.32,3.07,4.78,3.39,4.34
		C3.71,3.9,4.18,3.62,4.71,3.54l9.37-1.41c0.54-0.08,1.06,0.05,1.49,0.38c0.43,0.33,0.71,0.81,0.79,1.35l1.28,8.82
		C17.27,12.83,16.93,13.03,16.63,13.29z M7.3,22.19c0.88,0.08,1.78,0.1,2.64,0.09c1.56-0.02,2.95-0.52,4.02-1.43
		c0.43-0.37,0.81-0.8,1.12-1.29c0.37-0.61,0.7-1.25,0.97-1.88c0.14-0.33,0.24-0.59,0.33-0.82l0.03-0.08
		c0.12-0.33,0.22-0.61,0.45-1.04c0.33-0.65,0.49-0.95,0.8-1.21c0.07-0.06,0.15-0.12,0.24-0.17l1.13,7.78
		c0.08,0.54-0.05,1.08-0.37,1.52c-0.32,0.44-0.79,0.73-1.32,0.81l-9.38,1.41c-1.11,0.18-2.12-0.63-2.28-1.73l-0.32-2.19
		C6.01,22.06,6.67,22.14,7.3,22.19z"/>
	<path class="st0" d="M12.79,11.26l-4.35-0.6c-0.31-0.03-0.59,0.09-0.77,0.32c-0.18,0.24-0.22,0.56-0.11,0.83l1.66,4.14
		c0.11,0.28,0.36,0.47,0.65,0.52c0.04,0.01,0.08,0.01,0.12,0.01c0.25,0,0.5-0.12,0.66-0.33l2.68-3.54c0.18-0.24,0.22-0.56,0.11-0.83
		C13.33,11.5,13.08,11.3,12.79,11.26z"/>
</g>
</svg>
