<?xml version="1.0" encoding="utf-8"?>
<!-- Generator: Adobe Illustrator 23.0.5, SVG Export Plug-In . SVG Version: 6.00 Build 0)  -->
<svg version="1.1" id="Layer_1" xmlns="http://www.w3.org/2000/svg" xmlns:xlink="http://www.w3.org/1999/xlink" x="0px" y="0px"
	 viewBox="0 0 50 50" style="enable-background:new 0 0 50 50;" xml:space="preserve">
<path d="M24.51,37"/>
<path d="M44.51,37.73l-7.77-9.94V16.88c0-3.31-1.29-6.42-3.63-8.77c-2.34-2.34-5.46-3.63-8.77-3.63c-6.83,0-12.4,5.56-12.4,12.39
	l0.02,10.91l-7.46,9.95h11.41c0.56,4.27,4.18,7.58,8.59,7.58s8.03-3.32,8.59-7.58H44.51z M14.37,28.61l-0.02-11.73
	c0-5.51,4.49-10,10-10c2.67,0,5.18,1.04,7.07,2.93c1.89,1.89,2.93,4.4,2.93,7.07l-0.02,11.74l0.18,0.23
	c1.12,1.42,2.23,2.84,3.35,4.26l1.74,2.23H9.3L14.37,28.61z M24.51,42.57c-2.9,0-5.31-2.08-5.84-4.83h0.09h11.46h0.14
	C29.82,40.48,27.41,42.57,24.51,42.57z"/>
</svg>
