<svg xmlns="http://www.w3.org/2000/svg" viewBox="0 0 31 31" style="enable-background:new 0 0 31 31" xml:space="preserve"><path d="M15.5.65C7.31.65.65 7.31.65 15.5S7.31 30.35 15.5 30.35s14.85-6.66 14.85-14.85S23.69.65 15.5.65zm0 28c-7.25 0-13.15-5.9-13.15-13.15S8.25 2.35 15.5 2.35s13.15 5.9 13.15 13.15-5.9 13.15-13.15 13.15z"/><path d="m21.68 8.25-9.29 4.01c-.18.08-.32.22-.39.4l-3.66 9.15c-.11.28-.04.59.17.8.14.13.31.2.5.2.1 0 .21-.02.3-.07l9.08-4.15c.16-.08.29-.21.37-.37l3.87-9.01c.12-.28.06-.59-.15-.8a.739.739 0 0 0-.8-.16zm-11.3 12.41 2.77-6.92c.57.02 1.53.18 2.41.85 1.22.92 1.56 2.27 1.66 2.94l-6.84 3.13z"/></svg>